HIERARCHY
ROOT joint_Root
{
	OFFSET 0.0 0.0 0.0
	CHANNELS 6 Xposition Yposition Zposition Zrotation Xrotation Yrotation 
	JOINT Hips
	{
		OFFSET 4.5925 91.4895 -427.239
		CHANNELS 6 Xposition Yposition Zposition Zrotation Xrotation Yrotation 
		JOINT Spine
		{
			OFFSET 15.7357 0.0 0.0
			CHANNELS 6 Xposition Yposition Zposition Zrotation Xrotation Yrotation 
			JOINT Chest
			{
				OFFSET 8.98455 -0.406207 0.0
				CHANNELS 6 Xposition Yposition Zposition Zrotation Xrotation Yrotation 
				JOINT Neck
				{
					OFFSET 16.3773 0.0 0.0
					CHANNELS 6 Xposition Yposition Zposition Zrotation Xrotation Yrotation 
					JOINT Head
					{
						OFFSET 6.45672 0.0 0.0
						CHANNELS 6 Xposition Yposition Zposition Zrotation Xrotation Yrotation 
						End Site
						{
							OFFSET 0.0 0.0 0.0
						}
					}
				}
				JOINT Shoulder_L
				{
					OFFSET 12.9942 -0.242716 4.98039
					CHANNELS 6 Xposition Yposition Zposition Zrotation Xrotation Yrotation 
					JOINT UpperArm_L
					{
						OFFSET 5.34809 0.0 0.0
						CHANNELS 6 Xposition Yposition Zposition Zrotation Xrotation Yrotation 
						JOINT LowerArm_L
						{
							OFFSET 24.3286 1.87007e-05 0.0
							CHANNELS 6 Xposition Yposition Zposition Zrotation Xrotation Yrotation 
							JOINT Hand_L
							{
								OFFSET 22.2916 0.0 0.0
								CHANNELS 6 Xposition Yposition Zposition Zrotation Xrotation Yrotation 
								End Site
								{
									OFFSET 0.0 0.0 0.0
								}
							}
						}
					}
				}
				JOINT Shoulder_R
				{
					OFFSET 12.9945 -0.242716 -4.98039
					CHANNELS 6 Xposition Yposition Zposition Zrotation Xrotation Yrotation 
					JOINT UpperArm_R
					{
						OFFSET -5.34813 0.0 0.0
						CHANNELS 6 Xposition Yposition Zposition Zrotation Xrotation Yrotation 
						JOINT LowerArm_R
						{
							OFFSET -24.3289 0.000322201 0.0
							CHANNELS 6 Xposition Yposition Zposition Zrotation Xrotation Yrotation 
							JOINT Hand_R
							{
								OFFSET -22.2915 -0.000108084 0.0
								CHANNELS 6 Xposition Yposition Zposition Zrotation Xrotation Yrotation 
								End Site
								{
									OFFSET 0.0 0.0 0.0
								}
							}
						}
					}
				}
			}
		}
		JOINT UpperLeg_L
		{
			OFFSET -2.19248 -6.46944 0.0
			CHANNELS 6 Xposition Yposition Zposition Zrotation Xrotation Yrotation 
			JOINT LowerLeg_L
			{
				OFFSET 39.0811 0.0 -1.23785e-05
				CHANNELS 6 Xposition Yposition Zposition Zrotation Xrotation Yrotation 
				JOINT Foot_L
				{
					OFFSET 40.9854 0.0 -1.26872e-05
					CHANNELS 6 Xposition Yposition Zposition Zrotation Xrotation Yrotation 
					JOINT Toes_L
					{
						OFFSET 11.7543 0.0 0.0
						CHANNELS 6 Xposition Yposition Zposition Zrotation Xrotation Yrotation 
						End Site
						{
							OFFSET 0.0 0.0 0.0
						}
					}
				}
			}
		}
		JOINT UpperLeg_R
		{
			OFFSET -2.19251 6.46944 0.0
			CHANNELS 6 Xposition Yposition Zposition Zrotation Xrotation Yrotation 
			JOINT LowerLeg_R
			{
				OFFSET -39.0811 -0.00228153 -0.0401928
				CHANNELS 6 Xposition Yposition Zposition Zrotation Xrotation Yrotation 
				JOINT Foot_R
				{
					OFFSET -40.9854 0.0 0.0
					CHANNELS 6 Xposition Yposition Zposition Zrotation Xrotation Yrotation 
					JOINT Toes_R
					{
						OFFSET -11.7543 0.0 0.0
						CHANNELS 6 Xposition Yposition Zposition Zrotation Xrotation Yrotation 
						End Site
						{
							OFFSET 0.0 0.0 0.0
						}
					}
				}
			}
		}
	}
}
MOTION
Frames:	9
Frame Time:	0.0333333
0.000000 0.000000 0.000000 0.000000 0.000000 -0.000000 -2.297000 91.527000 0.740849 88.919100 -12.050600 5.355710 15.735700 0.000005 -0.000001 68.262800 84.988100 -63.474800 8.984550 -0.406207 -0.000000 1.732790 -3.961690 9.630620 16.377300 -0.000001 -0.000001 9.565010 0.390689 -3.685400 6.456720 -0.000001 -0.000000 4.800130 -0.048134 -0.041657 12.994200 -0.242716 4.980390 -83.076100 -14.410700 -63.989700 5.348090 -0.000007 -0.000001 -60.845800 -68.204200 -102.812000 24.328600 0.000019 0.000005 4.743050 6.023780 -38.333500 22.291600 -0.000001 0.000005 17.578600 5.389420 -2.597560 12.994500 -0.242716 -4.980390 87.319400 10.248900 -75.257400 -5.348130 -0.000001 -0.000004 -53.442700 24.702200 -1.878540 -24.328900 0.000322 -0.000009 0.870231 1.706470 -27.053400 -22.291500 -0.000108 -0.000004 19.572500 5.463270 -5.120740 -2.192480 -6.469440 -0.000000 -172.229000 -20.733800 1.005830 39.081100 -0.000007 -0.000012 -0.151436 0.323989 25.052100 40.985400 -0.000006 -0.000013 -1.500230 5.946860 -69.021700 11.754300 -0.000000 0.000003 -0.000124 -0.001237 -16.624800 -2.192510 6.469440 -0.000001 176.559000 17.765300 178.894000 -39.081100 -0.002282 -0.040193 -0.148667 0.321565 25.296600 -40.985400 0.000008 0.000006 4.825450 19.671600 -69.339100 -11.754300 -0.000006 -0.000006 -0.000003 -0.000048 -16.575800
0.000000 0.000000 0.000000 0.000000 0.000000 -0.000000 -2.338090 91.553100 0.636504 88.881800 -11.810100 5.290240 15.735700 0.000005 -0.000001 69.027100 84.996700 -64.369100 8.984550 -0.406207 -0.000000 1.754170 -3.823420 9.369010 16.377300 -0.000001 -0.000001 9.504180 0.365326 -3.587330 6.456720 -0.000001 -0.000000 4.653590 0.133224 -0.210738 12.994200 -0.242716 4.980390 -83.307800 -13.638400 -63.543800 5.348090 -0.000007 -0.000001 -61.148800 -66.660300 -101.151000 24.328600 0.000019 0.000005 4.378580 4.801560 -42.460000 22.291600 -0.000001 0.000005 18.206600 5.393550 -2.728820 12.994500 -0.242716 -4.980390 87.247900 10.331200 -74.995200 -5.348130 -0.000001 -0.000004 -53.284300 24.555200 -2.404710 -24.328900 0.000322 -0.000009 0.887064 1.727130 -27.218900 -22.291500 -0.000108 -0.000004 19.683600 5.461870 -5.069390 -2.192480 -6.469440 -0.000000 -172.208000 -20.574600 0.836223 39.081100 -0.000007 -0.000012 -0.152090 0.326101 25.004000 40.985400 -0.000006 -0.000013 -1.506320 6.056300 -68.884900 11.754300 -0.000000 0.000003 -0.000137 -0.001346 -16.628800 -2.192510 6.469440 -0.000001 176.630000 18.142900 178.876000 -39.081100 -0.002282 -0.040193 -0.146210 0.318448 25.151800 -40.985400 0.000008 0.000006 4.867170 19.747400 -69.232500 -11.754300 -0.000006 -0.000006 -0.000002 -0.000029 -16.575000
0.000000 0.000000 0.000000 0.000000 0.000000 -0.000000 -2.391740 91.612400 0.532931 88.858100 -11.376700 5.258820 15.735700 0.000005 -0.000001 70.208300 85.017000 -65.681500 8.984550 -0.406207 -0.000000 1.773480 -3.608740 9.104010 16.377300 -0.000001 -0.000001 9.463640 0.308365 -3.495210 6.456720 -0.000001 -0.000000 4.392410 0.265196 -0.362518 12.994200 -0.242716 4.980390 -83.771000 -12.638000 -63.487000 5.348090 -0.000007 -0.000001 -58.658100 -64.737800 -95.155400 24.328600 0.000019 0.000005 3.497710 2.979140 -49.653000 22.291600 -0.000001 0.000005 18.479000 5.389940 -2.613400 12.994500 -0.242716 -4.980390 87.201900 10.327100 -74.749600 -5.348130 -0.000001 -0.000004 -53.516300 24.056700 -2.821640 -24.328900 0.000322 -0.000009 0.811372 1.601950 -26.896200 -22.291500 -0.000108 -0.000004 19.802000 5.458060 -4.930230 -2.192480 -6.469440 -0.000000 -172.187000 -20.392100 0.800175 39.081100 -0.000007 -0.000012 -0.147934 0.321227 24.727600 40.985400 -0.000006 -0.000013 -1.490210 6.298850 -68.630600 11.754300 -0.000000 0.000003 -0.000138 -0.001352 -16.629100 -2.192510 6.469440 -0.000001 176.656000 18.672900 179.038000 -39.081100 -0.002282 -0.040193 -0.143369 0.317812 24.775200 -40.985400 0.000008 0.000006 4.879630 19.859400 -69.030400 -11.754300 -0.000006 -0.000006 -0.000003 -0.000046 -16.575700
0.000000 0.000000 0.000000 0.000000 0.000000 -0.000000 -2.449110 91.662300 0.434726 88.879000 -10.780100 5.274330 15.735700 0.000005 -0.000001 71.693300 85.008800 -67.340500 8.984550 -0.406207 -0.000000 1.856730 -3.357600 8.754090 16.377300 -0.000001 -0.000001 9.146390 0.193613 -3.285690 6.456720 -0.000001 -0.000000 4.171930 0.351732 -0.496202 12.994200 -0.242716 4.980390 -84.410300 -11.471700 -63.798700 5.348090 -0.000007 -0.000001 -53.530100 -62.525200 -85.087100 24.328600 0.000019 0.000005 2.699130 1.567150 -59.910000 22.291600 -0.000001 0.000005 18.489800 5.375200 -2.148090 12.994500 -0.242716 -4.980390 87.156000 10.252600 -74.404900 -5.348130 -0.000001 -0.000004 -54.003000 23.958900 -3.398060 -24.328900 0.000322 -0.000009 0.748822 1.539420 -25.977000 -22.291500 -0.000108 -0.000004 19.970700 5.452660 -4.735330 -2.192480 -6.469440 -0.000000 -172.229000 -20.022600 0.737720 39.081100 -0.000007 -0.000012 -0.144965 0.318169 24.495300 40.985400 -0.000006 -0.000013 -1.476690 6.512450 -68.381300 11.754300 -0.000000 0.000003 -0.000139 -0.001365 -16.629500 -2.192510 6.469440 -0.000001 176.621000 19.295000 179.222000 -39.081100 -0.002282 -0.040193 -0.139960 0.314733 24.476100 -40.985400 0.000008 0.000006 4.883510 19.869800 -68.874700 -11.754300 -0.000006 -0.000006 -0.000003 -0.000041 -16.575500
0.000000 0.000000 0.000000 0.000000 0.000000 -0.000000 -2.518850 91.722300 0.309742 88.938200 -9.982660 5.330600 15.735700 0.000005 -0.000001 72.734600 84.960700 -68.599000 8.984550 -0.406207 -0.000000 1.990360 -3.197430 8.320850 16.377300 -0.000001 -0.000001 8.647610 -0.005468 -2.941780 6.456720 -0.000001 -0.000000 3.931990 0.401334 -0.655485 12.994200 -0.242716 4.980390 -85.184600 -10.176200 -64.508200 5.348090 -0.000007 -0.000001 -47.103500 -59.524400 -72.479000 24.328600 0.000019 0.000005 2.624710 0.847844 -72.121700 22.291600 -0.000001 0.000005 17.961300 5.355660 -1.546580 12.994500 -0.242716 -4.980390 87.151600 10.108700 -74.173300 -5.348130 -0.000001 -0.000004 -54.779400 24.185100 -3.943280 -24.328900 0.000322 -0.000009 0.705826 1.532960 -24.759200 -22.291500 -0.000108 -0.000004 19.962700 5.444760 -4.452740 -2.192480 -6.469440 -0.000000 -172.273000 -19.672000 0.701617 39.081100 -0.000007 -0.000012 -0.140556 0.312863 24.192500 40.985400 -0.000006 -0.000013 -1.427350 6.945900 -68.055700 11.754300 -0.000000 0.000003 -0.000151 -0.001464 -16.633200 -2.192510 6.469440 -0.000001 176.529000 20.042000 179.484000 -39.081100 -0.002282 -0.040193 -0.137932 0.315389 24.125200 -40.985400 0.000008 0.000006 4.878120 19.846800 -68.699700 -11.754300 -0.000006 -0.000006 -0.000003 -0.000049 -16.575800
0.000000 0.000000 0.000000 0.000000 0.000000 -0.000000 -2.605700 91.782900 0.146536 88.965800 -9.055430 5.262290 15.735700 0.000005 -0.000001 73.761100 84.921700 -69.855900 8.984550 -0.406207 -0.000000 2.103410 -3.030910 7.860150 16.377300 -0.000001 -0.000001 7.908470 -0.303366 -2.501910 6.456720 -0.000001 -0.000000 3.709080 0.239770 -0.846431 12.994200 -0.242716 4.980390 -86.145500 -8.586380 -65.713300 5.348090 -0.000007 -0.000001 -40.046700 -55.138600 -58.684200 24.328600 0.000019 0.000005 2.595410 0.252297 -84.449700 22.291600 -0.000001 0.000005 17.069300 5.347540 -1.303310 12.994500 -0.242716 -4.980390 87.162500 9.980440 -74.040600 -5.348130 -0.000001 -0.000004 -55.691000 24.712600 -4.323230 -24.328900 0.000322 -0.000009 0.629829 1.441510 -23.639000 -22.291500 -0.000108 -0.000004 19.767500 5.436700 -4.170390 -2.192480 -6.469440 -0.000000 -172.339000 -19.194400 0.449341 39.081100 -0.000007 -0.000012 -0.139854 0.314992 23.941000 40.985400 -0.000006 -0.000013 -1.396040 7.361340 -67.706900 11.754300 -0.000000 0.000003 -0.000159 -0.001525 -16.635400 -2.192510 6.469440 -0.000001 176.528000 20.925700 179.597000 -39.081100 -0.002282 -0.040193 -0.131394 0.305831 23.772000 -40.985400 0.000008 0.000006 4.889960 19.818700 -68.500000 -11.754300 -0.000006 -0.000006 -0.000003 -0.000041 -16.575500
0.000000 0.000000 0.000000 0.000000 0.000000 -0.000000 -2.653670 91.863100 -0.045496 89.037600 -8.210160 5.140420 15.735700 0.000005 -0.000001 75.413200 84.907300 -71.772000 8.984550 -0.406207 -0.000000 2.190860 -2.740190 7.329090 16.377300 -0.000001 -0.000001 7.030540 -0.651608 -2.052670 6.456720 -0.000001 -0.000000 3.428430 -0.085432 -0.982306 12.994200 -0.242716 4.980390 -87.268000 -6.410930 -66.863400 5.348090 -0.000007 -0.000001 -34.114000 -48.088300 -46.234800 24.328600 0.000019 0.000005 3.034280 -0.267727 -95.015000 22.291600 -0.000001 0.000005 15.942700 5.349930 -1.375010 12.994500 -0.242716 -4.980390 87.137100 9.953330 -73.863300 -5.348130 -0.000001 -0.000004 -56.564300 25.642000 -4.438100 -24.328900 0.000322 -0.000009 0.491373 1.162610 -22.957100 -22.291500 -0.000108 -0.000004 19.532700 5.432010 -4.007770 -2.192480 -6.469440 -0.000000 -172.536000 -18.663900 0.190223 39.081100 -0.000007 -0.000012 -0.133525 0.306467 23.542400 40.985400 -0.000006 -0.000013 -1.359550 7.657900 -67.284600 11.754300 -0.000000 0.000003 -0.000172 -0.001631 -16.639300 -2.192510 6.469440 -0.000001 176.504000 21.727000 179.653000 -39.081100 -0.002282 -0.040193 -0.126514 0.300960 23.334600 -40.985400 0.000008 0.000006 4.850430 19.763100 -68.215800 -11.754300 -0.000006 -0.000006 -0.000002 -0.000029 -16.575000
0.000000 0.000000 0.000000 0.000000 0.000000 -0.000000 -2.682140 91.934300 -0.244463 89.088800 -7.424750 4.992100 15.735700 0.000005 -0.000001 77.397700 84.888000 -74.071600 8.984550 -0.406207 -0.000000 2.291530 -2.387710 6.694360 16.377300 -0.000001 -0.000001 6.062140 -1.029170 -1.428210 6.456720 -0.000001 -0.000000 3.195340 -0.358948 -1.137520 12.994200 -0.242716 4.980390 -88.390300 -4.016770 -68.145100 5.348090 -0.000007 -0.000001 -29.848000 -38.174200 -35.401700 24.328600 0.000019 0.000005 3.487130 -0.779918 -102.594000 22.291600 -0.000001 0.000005 14.780100 5.355810 -1.556010 12.994500 -0.242716 -4.980390 87.121600 10.049000 -73.925600 -5.348130 -0.000001 -0.000004 -57.556900 26.602300 -4.114170 -24.328900 0.000322 -0.000009 0.386225 0.921783 -22.791200 -22.291500 -0.000108 -0.000004 19.255600 5.431090 -3.976450 -2.192480 -6.469440 -0.000000 -172.716000 -18.151000 -0.105510 39.081100 -0.000007 -0.000012 -0.132828 0.309905 23.200500 40.985400 -0.000006 -0.000013 -1.338660 7.883180 -66.897700 11.754300 -0.000000 0.000003 -0.000194 -0.001805 -16.645700 -2.192510 6.469440 -0.000001 176.484000 22.608900 179.644000 -39.081100 -0.002282 -0.040193 -0.118535 0.287731 22.952300 -40.985400 0.000008 0.000006 4.855400 19.897700 -67.957800 -11.754300 -0.000006 -0.000006 -0.000002 -0.000037 -16.575300
0.000000 0.000000 0.000000 0.000000 0.000000 -0.000000 -2.685440 91.997000 -0.437196 89.059200 -6.711680 4.744060 15.735700 0.000005 -0.000001 78.545300 84.870800 -75.523800 8.984550 -0.406207 -0.000000 2.354270 -2.178220 6.082380 16.377300 -0.000001 -0.000001 5.066450 -1.290870 -0.780909 6.456720 -0.000001 -0.000000 3.048640 -0.576730 -1.254310 12.994200 -0.242716 4.980390 -89.428200 -1.476240 -68.828400 5.348090 -0.000007 -0.000001 -28.700900 -25.575300 -27.516800 24.328600 0.000019 0.000005 4.538700 -1.234660 -105.189000 22.291600 -0.000001 0.000005 12.821300 5.378300 -2.245250 12.994500 -0.242716 -4.980390 87.141900 10.142000 -74.170900 -5.348130 -0.000001 -0.000004 -58.535300 27.721100 -3.787240 -24.328900 0.000322 -0.000009 0.352023 0.838388 -22.839500 -22.291500 -0.000108 -0.000004 18.757700 5.430870 -3.968930 -2.192480 -6.469440 -0.000000 -172.871000 -17.713800 -0.574975 39.081100 -0.000007 -0.000012 -0.126871 0.298817 23.005200 40.985400 -0.000006 -0.000013 -1.282660 8.085260 -66.577200 11.754300 -0.000000 0.000003 -0.000193 -0.001795 -16.645300 -2.192510 6.469440 -0.000001 176.558000 23.487400 179.538000 -39.081100 -0.002282 -0.040193 -0.118195 0.292456 22.562300 -40.985400 0.000008 0.000006 4.836140 20.052300 -67.683200 -11.754300 -0.000006 -0.000006 -0.000001 -0.000022 -16.574700
